<svg xmlns="http://www.w3.org/2000/svg" viewBox="0 0 956.68 157.3"><defs><style>.cls-1{fill:#f88500;}.cls-2{fill:none;stroke:#000;stroke-miterlimit:10;stroke-width:0.01px;}.cls-3{fill:#4d4d4d;}</style></defs><title>next new gap logo</title><g id="Layer_2" data-name="Layer 2"><g id="Layer_1-2" data-name="Layer 1"><path class="cls-1" d="M199.35,36.78h36.11c32.45,0,51.94,10.41,51.94,39.49,0,27.8-19.14,41.29-51.07,41.29h-27v60.95h-10Zm34.45,72.44c29.28,0,43.29-9.64,43.29-32.95,0-23.71-14.53-31.15-44.16-31.15H209.35v64.1Z" transform="translate(0 -23.79)"/><path class="cls-1" d="M299.75,152.81c0-22.95,20.93-33.87,67.39-38.95C367.45,98,363.05,81,342.52,81c-14.1,0-26.28,6.88-33.28,12.13l-4.44-7.06c7.4-5.16,21.88-13.42,38.85-13.42,24.75,0,33.1,17.77,33.1,39.88v66h-8.13l-1-13.42h-.48c-10.66,8.52-23.36,16-37.07,16C313.5,181.09,299.75,172.19,299.75,152.81Zm67.39,3.42V121.09c-42.89,4.9-57.55,14.75-57.55,31.23,0,14.81,10.13,20.51,22.14,20.51S354.22,167.11,367.14,156.23Z" transform="translate(0 -23.79)"/><path class="cls-1" d="M414,75.23h8.13l1,19.27h.48c7.07-12.69,17.3-21.85,29.72-21.85a22.12,22.12,0,0,1,10.35,2.15l-2.18,8.61a23.54,23.54,0,0,0-9.44-1.73c-9.39,0-20.53,7.06-28.49,26.59v70.24H414Z" transform="translate(0 -23.79)"/><path class="cls-1" d="M483,23.79h9.52v114H493l51.55-62.59h11.09l-34,40.87,39.71,62.41h-10.7L516,123.19l-23.45,27.19v28.13H483Z" transform="translate(0 -23.79)"/><path class="cls-1" d="M574.25,152.81c0-22.95,20.93-33.87,67.39-38.95C641.94,98,637.55,81,617,81c-14.1,0-26.28,6.88-33.28,12.13l-4.44-7.06c7.39-5.16,21.88-13.42,38.85-13.42,24.75,0,33.1,17.77,33.1,39.88v66h-8.13l-1-13.42h-.47c-10.66,8.52-23.37,16-37.07,16C588,181.09,574.25,172.19,574.25,152.81Zm67.39,3.42V121.09c-42.9,4.9-57.56,14.75-57.56,31.23,0,14.81,10.14,20.51,22.15,20.51S628.72,167.11,641.64,156.23Z" transform="translate(0 -23.79)"/><path class="cls-1" d="M688.53,75.23h8.14l1,19.27h.48c7.07-12.69,17.29-21.85,29.71-21.85a22.14,22.14,0,0,1,10.36,2.15l-2.18,8.61a23.57,23.57,0,0,0-9.44-1.73c-9.39,0-20.53,7.06-28.49,26.59v70.24h-9.62Z" transform="translate(0 -23.79)"/><path class="cls-1" d="M746.52,127.07c0-34.54,21.8-54.42,46.9-54.42s46.89,19.88,46.89,54.42c0,34.15-21.79,54-46.89,54S746.52,161.22,746.52,127.07Zm83.7,0c0-27.19-15.7-46-36.8-46s-36.81,18.84-36.81,46,15.71,45.64,36.81,45.64S830.22,154.25,830.22,127.07Z" transform="translate(0 -23.79)"/><path class="cls-1" d="M862.89,127.07c0-34.54,21.79-54.42,46.9-54.42s46.89,19.88,46.89,54.42c0,34.15-21.79,54-46.89,54S862.89,161.22,862.89,127.07Zm83.7,0c0-27.19-15.71-46-36.8-46S873,99.88,873,127.07s15.71,45.64,36.81,45.64S946.59,154.25,946.59,127.07Z" transform="translate(0 -23.79)"/><rect class="cls-1" y="1" width="153" height="153" rx="26.89"/><path class="cls-2" d="M112.06,72.88V73a.13.13,0,0,1,0-.06A.2.2,0,0,1,112.06,72.88Z" transform="translate(0 -23.79)"/><path class="cls-3" d="M140.45,62.39a9,9,0,0,0-9.34.1l-.17.1c-.26.18-.52.37-.77.57a9,9,0,0,0-3.33,6.9v.16c0,.36,0,.73,0,1.09a58.53,58.53,0,0,1-27,48.19h0L99,120h0l-.89.56h0c-.79.51-1.57,1-2.34,1.58l-.17.12q-2,1.41-3.81,3l-.11.1h0A58.89,58.89,0,0,0,80.57,138h0a59.32,59.32,0,0,0-4.48,8.27,58.82,58.82,0,0,0-26.53-20.54h0c-.8-.31-1.61-.6-2.43-.88h0a59,59,0,0,0-32.93-1.28,58.85,58.85,0,0,1,8.64-7.17h0a59.91,59.91,0,0,1,8.11-1c-.9-.73-1.77-1.5-2.62-2.29s-1.83-1.75-2.7-2.67a59.23,59.23,0,0,0,9.11-1.15l.78.61A58.28,58.28,0,0,0,59.58,121h0A57.21,57.21,0,0,0,68,122.13a58.69,58.69,0,0,1-23-14.88l-.79-.84a58.77,58.77,0,0,0,7-3.31c.86,1.1,1.77,2.17,2.71,3.2A58.7,58.7,0,0,0,77.31,122a58.77,58.77,0,0,0,9.91-1.84,60.07,60.07,0,0,1-6.55-2.63l-1.16-.56A58.76,58.76,0,0,1,58.05,98.65,58,58,0,0,0,64.51,93a58.48,58.48,0,0,0,9.85,12.63,60,60,0,0,0,10.76,8.3q.88.53,1.77,1A60.67,60.67,0,0,0,93.4,118a58.74,58.74,0,0,0,12-6.58c.5-.36,1-.72,1.49-1.1A22.56,22.56,0,0,0,92.87,70.16a22.21,22.21,0,0,0-5.26.62,58.75,58.75,0,0,0,31.32-21.21l.1-.14a9.23,9.23,0,0,1,3-2.54,9,9,0,0,1,13.15,8c0,.15,0,.3,0,.44A9,9,0,0,1,140.45,62.39Z" transform="translate(0 -23.79)"/><path class="cls-3" d="M76.12,151.24a9,9,0,1,1-.68-3.46h0A9,9,0,0,1,76.12,151.24Z" transform="translate(0 -23.79)"/><path class="cls-3" d="M94.17,151.24a9,9,0,0,1-9,9,8.57,8.57,0,0,1-1.69-.16,9,9,0,0,1,.19-17.76,9.29,9.29,0,0,1,1.5-.12A9,9,0,0,1,94.17,151.24Z" transform="translate(0 -23.79)"/></g></g></svg>