<svg xmlns="http://www.w3.org/2000/svg" viewBox="0 0 613.84 906.65"><defs><style>.cls-1{fill:#dcdcdc;}.cls-2{fill:#323232;}.cls-3{fill:#fff;}.cls-4{fill:#f88500;}</style></defs><g id="Layer_2" data-name="Layer 2"><g id="f5797293-4767-4b98-be82-dd8b3477ccfb"><ellipse class="cls-1" cx="306.92" cy="884.91" rx="306.92" ry="21.74"/><path class="cls-2" d="M527.45,210.47h-4.62V77.13A77.14,77.14,0,0,0,445.58,0H162.94A77.22,77.22,0,0,0,85.69,77.13h0V808.58a77.14,77.14,0,0,0,77.25,77.14H445.58a77.22,77.22,0,0,0,77.25-77.14V305.3h4.62Z"/><path class="cls-3" d="M449.05,19.66H413.2a27.71,27.71,0,0,1-15.15,36.08,27,27,0,0,1-10.41,2.08H223.89a27.76,27.76,0,0,1-27.76-27.75,26.69,26.69,0,0,1,2.08-10.41H165.37a57.62,57.62,0,0,0-57.59,57.71V808.58a57.72,57.72,0,0,0,57.71,57.71H449.16a57.62,57.62,0,0,0,57.59-57.71h0V77.25a57.76,57.76,0,0,0-57.7-57.59Z"/><rect class="cls-4" x="158.55" y="604.82" width="132.99" height="28.91"/><rect class="cls-1" x="158.55" y="667.27" width="297.21" height="28.91"/><rect class="cls-1" x="158.55" y="729.72" width="297.21" height="28.91"/><rect class="cls-4" x="158.66" y="366.13" width="132.99" height="28.91"/><rect class="cls-1" x="158.66" y="428.58" width="297.21" height="28.91"/><rect class="cls-1" x="158.66" y="491.03" width="297.21" height="28.91"/><rect class="cls-4" x="157.97" y="189.77" width="132.99" height="28.91"/><rect class="cls-1" x="157.97" y="252.22" width="297.21" height="28.91"/></g></g></svg>