<svg xmlns="http://www.w3.org/2000/svg" viewBox="0 0 1074.99 710.4"><defs><style>.cls-1{fill:#f0f0f0;}.cls-2{fill:#dcdcdc;}.cls-3{fill:#c8c8c8;}.cls-4{fill:#fff;}.cls-5{fill:#323232;}.cls-6{fill:#646464;}.cls-7{fill:#f88500;}.cls-8{fill:#282f39;}</style></defs><g id="Layer_2" data-name="Layer 2"><g id="f5797293-4767-4b98-be82-dd8b3477ccfb"><path class="cls-1" d="M1056.8,552.6c-18.8,39-51.6,68.7-89,91.4a404.78,404.78,0,0,1-47.7,24.5c-10.7,4.7-21.6,8.9-32.8,12.7-54.8,19.1-112.8,28.5-171.1,28.6-9.5,0-19-.2-28.5-.7-2.7-.1-5.4-.3-8.2-.5-14.3-1-28.7-2.5-43-4.6-.3,0-.6-.1-.9-.1a543.14,543.14,0,0,1-88-20.6c-5.5-1.8-11.1-3.7-16.5-5.7-1.5-.5-3-1.1-4.4-1.6-6.2-2.3-12.3-4.7-18.4-7.2q-7.65-3.15-15.3-6.6c-5-2.3-9.9-4.6-14.8-7-8-3.9-16-8.1-24-12.4-6.1-3.4-12.1-6.8-18-10.5a493.58,493.58,0,0,1-42.6-29.2c-4.8-3.7-9.6-7.5-14.3-11.3-3.3-2.7-6.5-5.4-9.7-8.1-6.9-5.6-14-10.9-21.9-14.9a67.31,67.31,0,0,0-7.3-3.2,90.78,90.78,0,0,0-29.3-5.7c-17-.7-34.6,2.5-51.1,7.2-7.8,2.2-15.5,4.8-23.3,7.3-3.2,1.1-6.3,2.1-9.5,3.2-6.5,2.2-13.1,4.4-19.7,6.4-2.2.7-4.4,1.3-6.6,1.9a187.64,187.64,0,0,1-27,5.7,143,143,0,0,1-60.6-5.3l-1.7-.5c-2.8-.9-5.6-1.8-8.3-2.9l-1.7-.6q-4-1.5-7.8-3.3l-1.7-.8c-2.5-1.2-4.9-2.3-7.2-3.6l-.6-.3-2.7-1.5a163.8,163.8,0,0,1-39.3-30.6,9.43,9.43,0,0,0-1-1c-1.6-1.7-3.2-3.5-4.7-5.3l-1.7-2c-1.8-2.2-3.5-4.4-5.2-6.7a6.07,6.07,0,0,1-.7-1,147.16,147.16,0,0,1-16.9-30.6c-.1-.3-.3-.7-.4-1q-1.95-5.1-3.6-10.5c-.5-1.5-.9-3-1.3-4.5-.1-.4-.3-.9-.4-1.3C.6,456.3,0,433.6,0,411.1v-7.8c.2-36.4.7-73.5,6.1-109.4,0-.2.1-.5.1-.7a335.68,335.68,0,0,1,7.3-35.9,259.71,259.71,0,0,1,12.3-36.4c12.3-29.1,30.4-55.5,50.3-80C126.3,79.3,192.2,27.5,269.4,8.1c83.2-20.8,175.5-.9,242.5,52.5,19.7,15.7,37.6,34.3,59.5,46.8.7.4,1.5.8,2.3,1.3a91.26,91.26,0,0,0,8.9,4.3,105.29,105.29,0,0,0,12.3,4.3c13.3,3.6,27.3,3.9,40.5-.5,1.1-.4,2.2-.8,3.2-1.2,2.3-.9,4.4-1.7,6.5-2.5,14.3-5.3,25.3-7.9,42.7-7a409.42,409.42,0,0,1,120.7,25.3c1.6.6,3.1,1.2,4.7,1.8,100.9,38.7,187.7,115.3,232.8,214,1.2,2.6,2.4,5.2,3.5,7.9C1076.8,417.8,1086.5,491.3,1056.8,552.6Z"/><rect class="cls-2" x="572" y="58.9" width="23" height="59"/><path class="cls-2" d="M636,113.9V703.8a543.14,543.14,0,0,1-88-20.6c-5.5-1.8-11.1-3.7-16.5-5.7-1.5-.5-3-1.1-4.4-1.6-6.2-2.3-12.3-4.7-18.4-7.2q-7.65-3.15-15.3-6.6c-5-2.3-9.9-4.6-14.8-7-8-3.9-16-8.1-24-12.4-6.1-3.4-12.1-6.8-18.5-10.5V112.9l199.9,1Z"/><path class="cls-3" d="M716.4,113.8V709.4c-9.6,0-19.1-.2-28.6-.7-2.7-.1-5.4-.3-8.3-.5-14.4-1-28.8-2.5-43.1-4.6-.3,0-.6-.1-.9-.1V113.8Z"/><rect class="cls-4" x="473" y="171.9" width="30" height="30"/><rect class="cls-4" x="521" y="171.9" width="30" height="30"/><rect class="cls-4" x="570" y="171.9" width="30" height="30"/><rect class="cls-4" x="474" y="240.9" width="30" height="30"/><rect class="cls-4" x="522" y="240.9" width="30" height="30"/><rect class="cls-4" x="571" y="240.9" width="30" height="30"/><rect class="cls-4" x="474" y="309.9" width="30" height="30"/><rect class="cls-4" x="523" y="309.9" width="30" height="30"/><rect class="cls-4" x="572" y="309.9" width="30" height="30"/><rect class="cls-4" x="475" y="377.9" width="30" height="30"/><rect class="cls-4" x="524" y="377.9" width="30" height="30"/><rect class="cls-4" x="572" y="377.9" width="30" height="30"/><rect class="cls-2" x="846" y="357.9" width="23" height="35"/><path class="cls-2" d="M888,389.9V681.3c-54.9,19.2-113.1,28.6-171.5,28.6-9.5,0-19.1-.2-28.5-.7V389.9Z"/><path class="cls-3" d="M968,389.9V644.1a400.76,400.76,0,0,1-47.4,24.5c-10.7,4.7-21.5,8.9-32.6,12.7V389.9Z"/><rect class="cls-4" x="727" y="446.9" width="30" height="30"/><rect class="cls-4" x="776" y="446.9" width="30" height="30"/><rect class="cls-4" x="825" y="446.9" width="30" height="30"/><rect class="cls-4" x="728" y="515.9" width="30" height="30"/><rect class="cls-4" x="777" y="515.9" width="30" height="30"/><rect class="cls-4" x="826" y="515.9" width="30" height="30"/><path class="cls-5" d="M749.7,705.4h0a5.1,5.1,0,0,1-5.1,5H10.2a5.1,5.1,0,0,1-5.1-5h0a5.1,5.1,0,0,1,5.1-5H744.6A5,5,0,0,1,749.7,705.4Z"/><path class="cls-5" d="M287.1,551.4h36.4c24.8-.1,44.9,34.4,44.9,77s-20,77.1-44.8,77H287.1c-24.8.1-44.8-34.4-44.8-77S262.4,551.3,287.1,551.4Z"/><rect class="cls-5" x="59" y="628.4" width="668" height="16"/><path class="cls-5" d="M348,583.8v50.7H452V584.6c0-26.4-19.4-49.2-45.6-52.3A51.87,51.87,0,0,0,348,583.8Z"/><path class="cls-5" d="M46,583.8v33.4l13,17.2h90V583.8a51.5,51.5,0,1,0-103,0Z"/><path class="cls-5" d="M399.1,551.4h36.5c24.8-.1,44.8,34.4,44.8,77s-20,77.1-44.8,77H399.1c-24.8.1-44.8-34.4-44.8-77S374.3,551.3,399.1,551.4Z"/><ellipse class="cls-6" cx="399.1" cy="628.3" rx="44.6" ry="76.8"/><ellipse class="cls-3" cx="399.1" cy="628.3" rx="32.1" ry="55"/><ellipse class="cls-6" cx="404.4" cy="628.3" rx="21.8" ry="37.5"/><path class="cls-5" d="M620.9,551.4h36.5c24.8-.1,44.8,34.4,44.8,77s-20,77.1-44.8,77H620.9c-24.8.1-44.8-34.4-44.8-77S596.1,551.3,620.9,551.4Z"/><path class="cls-5" d="M97.3,551.4h36.5c24.8-.1,44.8,34.4,44.8,77s-20,77.1-44.8,77H97.3c-24.8.1-44.8-34.4-44.8-77S72.6,551.3,97.3,551.4Z"/><ellipse class="cls-6" cx="97.4" cy="628.3" rx="44.6" ry="76.8"/><ellipse class="cls-3" cx="97.4" cy="628.3" rx="32.1" ry="55"/><ellipse class="cls-6" cx="102.7" cy="628.3" rx="21.8" ry="37.5"/><path class="cls-7" d="M72.1,344.6a27.54,27.54,0,0,1,22.8-15.2c107.5-7.5,233.5-7.5,340.5.3,7.6.5,19.5,9.7,19.5,9.7h-148l41.2,115.8-1.4,6,140.1,32a20.18,20.18,0,0,1,15.5,16.5l7.1,41.4,3.8,21.8,9.4,8.3-9.4,53.2H452V583.7a51.92,51.92,0,0,0-53.9-51.8c-28.2.9-50.1,24.9-50.1,53v49.5H149V583.8a51.59,51.59,0,0,0-53.4-51.7C67.7,533,46,556.9,46,585v32.3L23.2,587.9A54.4,54.4,0,0,1,12,554V477.7a54,54,0,0,1,5.7-25.1Z"/><path class="cls-2" d="M749.5,581.4H522.7l-9.3,53H740.1Zm-38.5,1-6.1,35H624.7l-3.9-35Z"/><polygon class="cls-4" points="740.3 573.4 513.2 573.4 522.5 581.4 749.7 581.4 740.3 573.4"/><polygon class="cls-7" points="509 551 512.8 573.4 739.9 573.4 736 549.4 703.9 549.4 703.9 549.4 701.1 562 613.5 562 604.4 549.4 509 549.4 509 551"/><polygon class="cls-4" points="709.9 516.4 703.4 549.4 703.4 549.4 735.9 549.4 730.2 516.4 709.9 516.4"/><polygon class="cls-5" points="581.8 516.4 604.4 549.4 613.5 562.4 701.1 562.4 703.9 549.4 710.5 516.4 581.8 516.4"/><polygon class="cls-4" points="503.6 516.4 509.4 549.4 604.5 549.4 581.8 516.4 503.6 516.4"/><polygon class="cls-5" points="85.6 339.4 27.6 455.4 95.5 455.4 130.6 339.4 85.6 339.4"/><polygon class="cls-8" points="157.3 339.4 136.7 455.4 320.9 455.4 292.9 339.4 157.3 339.4"/><polygon class="cls-8" points="306.9 339.4 348.1 455.5 548.6 455.5 455 339.4 306.9 339.4"/><path class="cls-7" d="M341.8,455.4l-1.4,6,135.3,30.3a30.61,30.61,0,0,1,23.8,24.8H730.2a31.26,31.26,0,0,0-23.7-25.1L545.4,454.3l-203.6,1.1Z"/><ellipse class="cls-7" cx="559.6" cy="608.1" rx="11.4" ry="12.4"/><ellipse class="cls-7" cx="735.5" cy="608.1" rx="6.7" ry="12.4"/><rect class="cls-5" x="12" y="512.4" width="337" height="9"/><rect class="cls-8" x="137" y="479.4" width="53" height="13"/><path class="cls-5" d="M11.9,479.4H34.2L11.9,532.3l-.8-.8a23.68,23.68,0,0,1-6.1-16V496.3a23.66,23.66,0,0,1,6.9-16.9Z"/><polygon class="cls-6" points="64.1 383.1 99.1 443.7 95.4 455.4 85.1 455.4 54.5 402.2 64.1 383.1"/><polygon class="cls-6" points="302 455.4 260.7 455.4 193.7 339.4 234.9 339.4 302 455.4"/><polygon class="cls-6" points="156.2 345.7 157.4 339.4 173.3 339.4 240.3 455.4 219.6 455.4 156.2 345.7"/><polygon class="cls-6" points="482.8 454.7 441.8 454.7 374.9 339.4 416.1 339.4 482.8 454.7"/><polygon class="cls-6" points="333.8 339.4 354.5 339.4 421.3 455 400.7 455 333.8 339.4"/><polygon class="cls-5" points="503.6 516.4 480 516.4 480 549.4 509.4 549.4 503.6 516.4"/><path class="cls-3" d="M522.5,581.4H444V624a10.46,10.46,0,0,0,10.4,10.4h58.9Z"/><polygon class="cls-2" points="522.5 581.4 513.2 573.4 451.1 573.4 443.8 581.4 522.5 581.4"/><polygon class="cls-5" points="619.8 581.4 623.7 617.4 705.9 617.4 712.2 581.4 619.8 581.4"/></g></g></svg>