<svg xmlns="http://www.w3.org/2000/svg" viewBox="0 0 100 100"><defs><style>.cls-1{fill:#f88500;}.cls-2{fill:none;stroke:#000;stroke-miterlimit:10;stroke-width:0.01px;}.cls-3{fill:#4d4d4d;}</style></defs><title>Asset 11</title><g id="Layer_2" data-name="Layer 2"><g id="Layer_1-2" data-name="Layer 1"><rect class="cls-1" width="100" height="100" rx="17.58"/><path class="cls-2" d="M73.24,31.43v0Z"/><path class="cls-3" d="M91.8,24.58a5.9,5.9,0,0,0-6.1.06l-.12.07a6,6,0,0,0-2.68,4.88v.1c0,.24,0,.48,0,.72A38.22,38.22,0,0,1,65.23,61.9h0l-.5.31h0l-.58.36h0c-.52.33-1,.68-1.53,1l-.11.08c-.85.61-1.69,1.26-2.49,1.95l-.07.06h0A38.91,38.91,0,0,0,52.66,74h0a39.11,39.11,0,0,0-2.93,5.41A38.42,38.42,0,0,0,32.39,66h0c-.53-.2-1.05-.39-1.59-.57h0a38.47,38.47,0,0,0-21.52-.83,37.76,37.76,0,0,1,5.65-4.68h0a36.73,36.73,0,0,1,5.3-.67q-.88-.72-1.71-1.5c-.61-.56-1.2-1.14-1.77-1.75a37.79,37.79,0,0,0,6-.75c.16.14.33.27.5.4a38.29,38.29,0,0,0,7,4.33,37.85,37.85,0,0,0,8.76,3h0a38.43,38.43,0,0,0,5.51.72,38.26,38.26,0,0,1-15-9.72l-.52-.56a38,38,0,0,0,4.56-2.15c.57.71,1.16,1.41,1.78,2.09A38.46,38.46,0,0,0,50.53,63.51,38.41,38.41,0,0,0,57,62.3a35.35,35.35,0,0,1-4.28-1.71L52,60.22a38.7,38.7,0,0,1-9.21-6.44,39.33,39.33,0,0,1-4.81-5.5,38.21,38.21,0,0,0,4.23-3.71,38.52,38.52,0,0,0,6.43,8.26A42.2,42.2,0,0,0,52,55.74a40.42,40.42,0,0,0,3.68,2.51c.38.23.76.45,1.15.66a37.81,37.81,0,0,0,4.26,2,38.35,38.35,0,0,0,7.86-4.3c.33-.23.66-.47,1-.72A14.74,14.74,0,0,0,60.7,29.65a14.4,14.4,0,0,0-3.44.41A38.35,38.35,0,0,0,77.73,16.19a.27.27,0,0,0,.07-.08,5.92,5.92,0,0,1,2-1.66,5.9,5.9,0,0,1,3.53-.59,5.89,5.89,0,0,1,5.06,5.83,2.71,2.71,0,0,1,0,.29A5.9,5.9,0,0,1,91.8,24.58Z"/><path class="cls-3" d="M49.75,82.65a5.87,5.87,0,1,1-.44-2.26h0A5.84,5.84,0,0,1,49.75,82.65Z"/><path class="cls-3" d="M61.55,82.65a5.9,5.9,0,0,1-5.9,5.89,5.77,5.77,0,0,1-1.1-.1,5.9,5.9,0,0,1-4.8-5.79,6,6,0,0,1,.54-2.47,5.91,5.91,0,0,1,4.38-3.35,6.37,6.37,0,0,1,1-.08A5.9,5.9,0,0,1,61.55,82.65Z"/></g></g></svg>