<svg xmlns="http://www.w3.org/2000/svg" viewBox="0 0 1074.99 906.65"><defs><style>.cls-1{fill:#f88500;}.cls-2{fill:#323232;}.cls-3{fill:#c8c8c8;}.cls-4{fill:#fff;}.cls-5{fill:#ccc;}</style></defs><g id="Layer_2" data-name="Layer 2"><g id="f5797293-4767-4b98-be82-dd8b3477ccfb"><circle class="cls-1" cx="296.35" cy="125.2" r="79.94"/><polygon class="cls-2" points="763.17 148.48 667.27 148.48 667.27 61.35 763.17 148.48"/><rect class="cls-3" x="291.96" y="145.68" width="482.54" height="666.54"/><rect class="cls-4" x="340.09" y="192.47" width="56.78" height="119.66"/><rect class="cls-4" x="427.83" y="192.47" width="56.78" height="119.66"/><rect class="cls-4" x="332.66" y="361.97" width="56.78" height="119.66"/><rect class="cls-4" x="427.83" y="361.97" width="56.78" height="119.66"/><rect class="cls-4" x="332.66" y="518.79" width="56.78" height="119.66"/><rect class="cls-4" x="425.76" y="516.72" width="56.78" height="119.66"/><rect class="cls-4" x="508.25" y="692.92" width="56.78" height="119.66"/><rect class="cls-4" x="594.04" y="516.72" width="56.78" height="119.66"/><rect class="cls-4" x="689.33" y="516.72" width="56.78" height="119.66"/><rect class="cls-4" x="596.11" y="360.63" width="56.78" height="119.66"/><rect class="cls-4" x="691.4" y="360.63" width="56.78" height="119.66"/><rect class="cls-4" x="596.11" y="192.47" width="56.78" height="119.66"/><rect class="cls-4" x="691.4" y="192.47" width="56.78" height="119.66"/><rect class="cls-2" x="291.96" y="299.7" width="482.54" height="18.28"/><rect class="cls-2" x="291.96" y="441.66" width="482.54" height="10.11"/><rect class="cls-2" x="291.96" y="409.25" width="482.54" height="10.11"/><rect class="cls-2" x="329.49" y="565.34" width="10.11" height="81.03"/><rect class="cls-2" x="386.15" y="565.34" width="10.11" height="81.03"/><rect class="cls-2" x="442.94" y="565.34" width="10.11" height="81.03"/><rect class="cls-2" x="499.72" y="565.34" width="10.11" height="81.03"/><rect class="cls-2" x="556.51" y="565.34" width="10.11" height="81.03"/><rect class="cls-2" x="613.29" y="565.34" width="10.11" height="81.03"/><rect class="cls-2" x="670.07" y="565.34" width="10.11" height="81.03"/><rect class="cls-2" x="726.73" y="565.34" width="10.11" height="81.03"/><rect class="cls-2" x="330.47" y="411.19" width="10.11" height="81.03"/><rect class="cls-2" x="387.25" y="411.19" width="10.11" height="81.03"/><rect class="cls-2" x="444.03" y="411.19" width="10.11" height="81.03"/><rect class="cls-2" x="500.7" y="411.19" width="10.11" height="81.03"/><rect class="cls-2" x="557.48" y="411.19" width="10.11" height="81.03"/><rect class="cls-2" x="614.26" y="411.19" width="10.11" height="81.03"/><rect class="cls-2" x="671.05" y="411.19" width="10.11" height="81.03"/><rect class="cls-2" x="727.83" y="411.19" width="10.11" height="81.03"/><rect class="cls-2" x="330.47" y="230.85" width="10.11" height="81.03"/><rect class="cls-2" x="387.25" y="230.85" width="10.11" height="81.03"/><rect class="cls-2" x="444.03" y="230.85" width="10.11" height="81.03"/><rect class="cls-2" x="500.7" y="230.85" width="10.11" height="81.03"/><rect class="cls-2" x="557.48" y="230.85" width="10.11" height="81.03"/><rect class="cls-2" x="614.26" y="230.85" width="10.11" height="81.03"/><rect class="cls-2" x="671.05" y="230.85" width="10.11" height="81.03"/><rect class="cls-2" x="727.83" y="230.85" width="10.11" height="81.03"/><rect class="cls-2" x="291.96" y="259.24" width="482.54" height="10.11"/><rect class="cls-2" x="291.96" y="226.83" width="482.54" height="10.11"/><rect class="cls-2" x="291.96" y="476.14" width="482.54" height="18.28"/><rect class="cls-2" x="269.78" y="138.24" width="526.89" height="27.17"/><polygon class="cls-4" points="397 718.75 397 692.92 365.93 692.92 365.93 718.75 394.32 718.75 397 718.75"/><polygon class="cls-4" points="394.32 739.47 365.93 739.47 365.93 765.3 397 765.3 397 739.47 394.32 739.47"/><rect class="cls-4" x="417.59" y="692.92" width="31.07" height="25.83"/><rect class="cls-4" x="417.59" y="739.47" width="31.07" height="25.83"/><polygon class="cls-4" points="650.09 718.75 650.09 692.92 619.02 692.92 619.02 718.75 647.53 718.75 650.09 718.75"/><polygon class="cls-4" points="647.53 739.47 619.02 739.47 619.02 765.3 650.09 765.3 650.09 739.47 647.53 739.47"/><rect class="cls-4" x="670.8" y="692.92" width="31.07" height="25.83"/><rect class="cls-4" x="670.8" y="739.47" width="31.07" height="25.83"/><rect class="cls-2" x="291.96" y="630.17" width="482.54" height="18.28"/><rect class="cls-2" x="291.96" y="597.75" width="482.54" height="10.11"/><rect class="cls-2" x="291.96" y="565.34" width="482.54" height="10.11"/><polygon class="cls-1" points="1001.27 546.45 792.78 546.45 792.78 699.99 792.9 699.99 792.9 730.57 823.49 699.99 1001.27 699.99 1001.27 546.45"/><rect class="cls-3" x="552.73" y="874.36" width="184.97" height="7.31"/><rect class="cls-3" x="889.04" y="874.36" width="185.95" height="7.31"/><rect class="cls-3" x="216.41" y="874.36" width="185.22" height="7.31"/><path class="cls-1" d="M683.35,844.87l4.51,1.1,170.84.12,1.59-3.53a35.77,35.77,0,0,0,2.68-19.5c-.73-5-2.56-9.87-6.83-11.94l-7.55-50.45-94.44-.12L717.6,790s-17.31-.37-26.57,11.33a27.56,27.56,0,0,0-5.73,15.11l-.36,6.09Z"/><circle class="cls-2" cx="720.89" cy="844.02" r="21.08"/><circle class="cls-5" cx="720.89" cy="844.02" r="11.09"/><circle class="cls-2" cx="824.95" cy="844.14" r="21.08"/><circle class="cls-5" cx="824.95" cy="844.14" r="11.09"/><polygon class="cls-4" points="731.97 786.26 783.03 786.38 789.25 786.38 799.73 786.38 799.73 785.53 799.73 776.39 799.73 765.91 792.78 765.91 786.57 765.91 775.48 765.91 769.26 765.91 756.59 765.91 731.97 786.26"/><polygon class="cls-4" points="808.01 786.38 835.06 786.38 835.06 781.02 835.06 771.88 835.06 765.91 831.04 765.91 824.83 765.91 808.01 765.91 808.01 786.38"/><path class="cls-3" d="M492.41,1.28h0a10.29,10.29,0,0,1-10.11.12c-.13,0-.13-.12-.25-.12a10.49,10.49,0,0,0-9.87,0l-.12.12a10.37,10.37,0,0,1-10,0c-.12,0-.12-.12-.24-.12a10.15,10.15,0,0,0-9.88,0c-4.63,2.44-10.84,6.7-10.84,11.58v.6c.49,5,16.82,6.22,25.71,3.9a47,47,0,0,0,20.23,0c8.89,2.44,25.47,1,25.95-4v-.61c0-4.75-6.33-9-11-11.45A10.37,10.37,0,0,0,492.41,1.28Z"/><path class="cls-3" d="M940.83,166.15h0a10.29,10.29,0,0,1-10.11.12c-.12,0-.12-.12-.25-.12a10.46,10.46,0,0,0-9.87,0l-.12.12a10.37,10.37,0,0,1-10,0c-.12,0-.12-.12-.24-.12a10.14,10.14,0,0,0-9.87,0c-4.63,2.43-10.85,6.7-10.85,11.57v.61c.49,5,16.82,6.22,25.71,3.9a47.26,47.26,0,0,0,20.23,0c8.89,2.44,25.47,1,25.95-4v-.61c0-4.75-6.33-9-11-11.45A9.68,9.68,0,0,0,940.83,166.15Z"/><path class="cls-3" d="M155.49,175.29h0a10.36,10.36,0,0,1-10.12.12c-.12,0-.12-.12-.24-.12a10.46,10.46,0,0,0-9.87,0l-.12.12a10.44,10.44,0,0,1-10,0c-.12,0-.12-.12-.24-.12a10.14,10.14,0,0,0-9.87,0c-4.63,2.43-10.85,6.7-10.85,11.57v.61c.49,5,16.82,6.22,25.72,3.9a47.22,47.22,0,0,0,20.22,0c8.9,2.44,25.47,1,26-4v-.61c0-4.75-6.34-9-11-11.45A9.66,9.66,0,0,0,155.49,175.29Z"/><path class="cls-1" d="M284,886.3l-4.51,1.1-170.84.12L107.11,884a35.68,35.68,0,0,1-2.68-19.5c.73-5,2.56-9.87,6.82-11.94l7.56-50.45,94.43-.12,36.56,29.49s17.3-.37,26.56,11.33a27.41,27.41,0,0,1,5.73,15.11l.37,6.09Z"/><circle class="cls-2" cx="246.51" cy="885.45" r="21.08"/><circle class="cls-5" cx="246.51" cy="885.45" r="11.09"/><circle class="cls-2" cx="142.45" cy="885.57" r="21.08"/><circle class="cls-5" cx="142.45" cy="885.57" r="11.09"/><polygon class="cls-4" points="235.42 827.69 184.36 827.81 178.15 827.81 167.67 827.81 167.67 826.96 167.67 817.82 167.67 807.34 174.62 807.34 180.83 807.34 191.92 807.34 198.13 807.34 210.81 807.34 235.42 827.69"/><polygon class="cls-4" points="159.38 827.81 132.33 827.81 132.33 822.45 132.33 813.31 132.33 807.34 136.35 807.34 142.57 807.34 159.26 807.34 159.38 827.81"/><polygon class="cls-4" points="889.77 656 863.09 621.76 878.69 609.69 891.24 625.9 933.88 580.94 948.02 594.46 889.77 656"/><polygon class="cls-1" points="0 585.32 208.49 585.32 208.49 738.86 208.37 738.86 208.37 769.44 177.78 738.86 0 738.86 0 585.32"/><polygon class="cls-4" points="98.34 698.52 71.77 664.28 87.25 652.22 99.8 668.43 142.45 623.46 156.7 636.99 98.34 698.52"/><path class="cls-2" d="M881.85,844.63l4.51,1.09,170.84.13,1.59-3.54a35.72,35.72,0,0,0,2.68-19.49c-.74-5-2.56-9.87-6.83-12l-7.55-50.44-94.44-.12-36.56,29.48s-17.3-.36-26.56,11.34a27.51,27.51,0,0,0-5.73,15.11l-.36,6.09Z"/><circle class="cls-2" cx="919.38" cy="843.77" r="21.08"/><circle class="cls-5" cx="919.38" cy="843.77" r="11.09"/><circle class="cls-2" cx="1023.45" cy="843.9" r="21.08"/><circle class="cls-5" cx="1023.45" cy="843.9" r="11.09"/><polygon class="cls-4" points="930.47 786.14 981.53 786.14 987.75 786.14 998.22 786.14 998.22 785.41 998.35 776.15 998.35 765.79 991.28 765.79 985.06 765.79 974.1 765.67 967.76 765.67 955.09 765.67 930.47 786.14"/><polygon class="cls-4" points="1006.63 786.14 1033.56 786.14 1033.56 780.9 1033.56 771.64 1033.56 765.79 1029.66 765.79 1023.33 765.79 1006.63 765.79 1006.63 786.14"/><rect class="cls-2" x="994.81" y="801.37" width="3.41" height="6.58"/><rect class="cls-2" x="937.78" y="791.99" width="6.58" height="3.41"/><path class="cls-2" d="M883.32,822.08A11.13,11.13,0,0,0,889.41,801a27.56,27.56,0,0,0-5.73,15.11Z"/><path class="cls-2" d="M480.47,845.48l4.51,1.1,170.84.12,1.58-3.53a35.68,35.68,0,0,0,2.68-19.5c-.73-5-2.56-9.87-6.82-11.94l-7.56-50.45-94.43-.12-36.56,29.49s-17.3-.37-26.56,11.33a27.41,27.41,0,0,0-5.73,15.11l-.37,6.09Z"/><circle class="cls-2" cx="518" cy="844.75" r="21.08"/><circle class="cls-5" cx="518" cy="844.75" r="11.09"/><circle class="cls-2" cx="622.06" cy="844.75" r="21.08"/><circle class="cls-5" cx="622.06" cy="844.75" r="11.09"/><polygon class="cls-4" points="529.09 786.99 580.14 786.99 586.36 786.99 596.84 786.99 596.84 786.26 596.84 777 596.84 766.64 589.89 766.64 583.68 766.64 572.59 766.52 566.38 766.52 553.7 766.52 529.09 786.99"/><polygon class="cls-4" points="605.13 786.99 632.18 786.99 632.18 781.75 632.18 772.49 632.18 766.64 628.15 766.64 621.94 766.64 605.13 766.64 605.13 786.99"/><rect class="cls-2" x="593.43" y="802.22" width="3.41" height="6.58"/><rect class="cls-2" x="536.4" y="792.84" width="6.58" height="3.41"/><path class="cls-2" d="M481.81,822.94a11.13,11.13,0,0,0,6.09-21.08A27.51,27.51,0,0,0,482.17,817Z"/></g></g></svg>